<svg xmlns="http://www.w3.org/2000/svg" viewBox="0 0 512 512" width="512" height="512">
  <defs>
    <linearGradient id="fitGrad" x1="0%" y1="0%" x2="100%" y2="100%">
      <stop offset="0%" stop-color="#10b981" />
      <stop offset="100%" stop-color="#14b8a6" />
    </linearGradient>
    <linearGradient id="bgGrad" x1="0%" y1="0%" x2="100%" y2="100%">
      <stop offset="0%" stop-color="#0f172a" />
      <stop offset="100%" stop-color="#020617" />
    </linearGradient>
  </defs>
  <rect width="512" height="512" rx="110" fill="url(#bgGrad)" stroke="#1e293b" stroke-width="8"/>
  <circle cx="256" cy="256" r="180" fill="none" stroke="url(#fitGrad)" stroke-width="16" stroke-dasharray="24 12" opacity="0.6"/>
  <!-- Stylized Dumbbell / Energy Emblem -->
  <g transform="translate(136, 136) scale(0.47)" fill="url(#fitGrad)">
    <path d="M104 96a24 24 0 0 1 24-24h32a24 24 0 0 1 24 24v320a24 24 0 0 1-24 24h-32a24 24 0 0 1-24-24V96z" />
    <path d="M328 96a24 24 0 0 1 24-24h32a24 24 0 0 1 24 24v320a24 24 0 0 1-24 24h-32a24 24 0 0 1-24-24V96z" />
    <rect x="40" y="144" width="48" height="224" rx="20" />
    <rect x="424" y="144" width="48" height="224" rx="20" />
    <rect x="160" y="232" width="192" height="48" rx="14" />
  </g>
  <text x="256" y="420" font-family="sans-serif" font-size="44" font-weight="900" fill="#f8fafc" text-anchor="middle" letter-spacing="4">FITREGION</text>
</svg>
